REM MD5 c517d951498486260324c25cb0d0fad6
FILE "Hugo (Europe).bin" BINARY
  TRACK 01 MODE2/2352
    INDEX 01 00:00:00
  TRACK 02 AUDIO
    INDEX 00 24:19:03
    INDEX 01 24:21:03
  TRACK 03 AUDIO
    INDEX 00 26:30:32
    INDEX 01 26:32:32
  TRACK 04 AUDIO
    INDEX 00 28:11:05
    INDEX 01 28:13:05
  TRACK 05 AUDIO
    INDEX 00 29:25:28
    INDEX 01 29:27:28
REM LEADOUT 32:27:29
